<svg width="154" height="42" viewBox="0 0 154 42" fill="none" xmlns="http://www.w3.org/2000/svg">
<path d="M22.176 29.552C21.2373 31.088 19.9467 32.272 18.304 33.104C16.6613 33.9147 14.8373 34.32 12.832 34.32C10.3787 34.32 8.27733 33.872 6.528 32.976C4.8 32.08 3.46667 30.8 2.528 29.136C1.61067 27.4507 1.152 25.4347 1.152 23.088C1.152 20.6773 1.664 18.5653 2.688 16.752C3.712 14.9387 5.13067 13.52 6.944 12.496C8.77867 11.472 10.8907 10.96 13.28 10.96C15.3707 10.96 17.1307 11.344 18.56 12.112C20.0107 12.88 21.2267 14.0427 22.208 15.6L18.208 18.448C17.696 17.4667 16.992 16.752 16.096 16.304C15.2 15.856 14.24 15.632 13.216 15.632C11.872 15.632 10.6987 15.9413 9.696 16.56C8.69333 17.1787 7.904 18.0427 7.328 19.152C6.77333 20.2613 6.496 21.5413 6.496 22.992C6.496 25.104 7.05067 26.7467 8.16 27.92C9.26933 29.0933 10.8373 29.68 12.864 29.68C13.952 29.68 14.976 29.424 15.936 28.912C16.9173 28.3787 17.7067 27.5787 18.304 26.512L22.176 29.552ZM31.6373 17.456C34.1759 17.456 36.1599 18.1813 37.5893 19.632C39.0399 21.0827 39.7653 23.0453 39.7653 25.52C39.7653 27.2053 39.4026 28.7093 38.6772 30.032C37.9519 31.3547 36.9279 32.4 35.6053 33.168C34.2826 33.936 32.7253 34.32 30.9333 34.32C28.4159 34.32 26.4319 33.5947 24.9813 32.144C23.5519 30.6933 22.8372 28.7413 22.8372 26.288C22.8372 24.5813 23.1999 23.0667 23.9253 21.744C24.6506 20.4213 25.6746 19.376 26.9973 18.608C28.3199 17.84 29.8666 17.456 31.6373 17.456ZM31.1573 30.064C32.2453 30.064 33.1093 29.6587 33.7493 28.848C34.4106 28.016 34.7413 26.9067 34.7413 25.52C34.7413 24.3253 34.4533 23.3973 33.8773 22.736C33.3013 22.0533 32.5119 21.712 31.5093 21.712C30.3999 21.712 29.5146 22.128 28.8533 22.96C28.2133 23.7707 27.8933 24.8693 27.8933 26.256C27.8933 27.4507 28.1706 28.3893 28.7253 29.072C29.3013 29.7333 30.1119 30.064 31.1573 30.064ZM42.7318 34V17.712H47.5958L47.3718 21.2C48.0331 20.0053 48.8758 19.088 49.8998 18.448C50.9451 17.7867 52.1078 17.456 53.3878 17.456C55.3291 17.456 56.7798 18.1173 57.7397 19.44C58.6998 20.7413 59.1691 22.6187 59.1478 25.072L59.0838 34H54.1878L54.2518 25.424C54.2731 24.3147 54.1024 23.472 53.7398 22.896C53.3984 22.2987 52.8438 22 52.0758 22C51.4358 22 50.8491 22.192 50.3158 22.576C49.7824 22.9387 49.3131 23.568 48.9078 24.464C48.5238 25.36 48.2144 26.5867 47.9798 28.144C47.7451 29.7013 47.6171 31.6533 47.5958 34H42.7318ZM70.7013 34.32C68.8879 34.32 67.3199 33.9893 65.9973 33.328C64.6746 32.6453 63.6506 31.696 62.9253 30.48C62.1999 29.2427 61.8372 27.7813 61.8372 26.096C61.8372 24.3893 62.1999 22.8853 62.9253 21.584C63.6719 20.2827 64.6639 19.2693 65.9013 18.544C67.1599 17.8187 68.5786 17.456 70.1573 17.456C71.9493 17.456 73.4106 17.8613 74.5413 18.672C75.6719 19.4827 76.4506 20.6347 76.8773 22.128C77.3253 23.6 77.4213 25.3173 77.1653 27.28H66.8293C66.9573 28.0907 67.3839 28.7733 68.1093 29.328C68.8346 29.8613 69.8266 30.128 71.0853 30.128C71.6613 30.128 72.2693 30.0107 72.9093 29.776C73.5493 29.52 74.0933 29.1467 74.5413 28.656L77.2613 31.536C76.5573 32.3893 75.6826 33.072 74.6373 33.584C73.6133 34.0747 72.3013 34.32 70.7013 34.32ZM70.2533 21.008C69.3999 21.008 68.6746 21.264 68.0773 21.776C67.5013 22.288 67.1173 23.0027 66.9253 23.92H73.0373C73.0586 22.9173 72.8133 22.1813 72.3013 21.712C71.8106 21.2427 71.1279 21.008 70.2533 21.008ZM87.6253 34.32C85.9399 34.32 84.4786 34 83.2413 33.36C82.0039 32.6987 81.0439 31.76 80.3613 30.544C79.6786 29.328 79.3372 27.8773 79.3372 26.192C79.3372 24.464 79.6999 22.9493 80.4253 21.648C81.1719 20.3253 82.1959 19.3013 83.4973 18.576C84.7986 17.8293 86.3133 17.456 88.0413 17.456C89.4493 17.456 90.6973 17.7333 91.7853 18.288C92.8733 18.8427 93.7479 19.7067 94.4093 20.88L90.9533 23.504C90.6119 22.8853 90.2066 22.4373 89.7373 22.16C89.2893 21.8827 88.7239 21.744 88.0413 21.744C86.9959 21.744 86.1319 22.1493 85.4493 22.96C84.7666 23.7493 84.4253 24.7947 84.4253 26.096C84.4253 27.3547 84.7239 28.3253 85.3213 29.008C85.9399 29.6907 86.8253 30.032 87.9773 30.032C88.5959 30.032 89.1613 29.8933 89.6733 29.616C90.2066 29.3173 90.6546 28.8587 91.0173 28.24L94.3773 30.928C93.6519 32.1653 92.6919 33.04 91.4973 33.552C90.3239 34.064 89.0333 34.32 87.6253 34.32ZM103.56 34.32C101.554 34.32 99.9651 33.7653 98.7918 32.656C97.6184 31.5253 97.0424 30.0427 97.0638 28.208L97.1918 21.776H94.5038V17.712H97.2558L97.2878 14.384H102.152L102.12 17.712H107.208V21.776H102.056L101.96 27.664C101.96 28.432 102.162 29.0293 102.568 29.456C102.973 29.8827 103.581 30.096 104.392 30.096C104.861 30.096 105.309 30.0427 105.736 29.936C106.184 29.808 106.642 29.5733 107.112 29.232L108.52 32.976C107.432 33.872 105.778 34.32 103.56 34.32ZM125.607 17.776V34H120.679L120.839 31.568C119.665 33.4027 117.927 34.32 115.623 34.32C114.172 34.32 112.935 33.9893 111.911 33.328C110.887 32.6667 110.108 31.7493 109.575 30.576C109.041 29.4027 108.775 28.0587 108.775 26.544C108.775 24.7307 109.148 23.1413 109.895 21.776C110.641 20.4107 111.644 19.3547 112.903 18.608C114.161 17.84 115.569 17.456 117.127 17.456C118.151 17.456 119.057 17.6693 119.847 18.096C120.636 18.5013 121.244 19.0453 121.671 19.728L122.087 17.776H125.607ZM117.607 21.712C116.433 21.712 115.505 22.1493 114.823 23.024C114.161 23.8987 113.831 25.0187 113.831 26.384C113.831 27.5573 114.087 28.464 114.599 29.104C115.132 29.744 115.847 30.064 116.743 30.064C117.831 30.064 118.759 29.616 119.527 28.72C120.316 27.824 120.711 26.6507 120.711 25.2C120.711 24.112 120.433 23.2587 119.879 22.64C119.324 22.0213 118.567 21.712 117.607 21.712Z" fill="#FE7F14"/>
<path d="M141.232 17.712H145.936V23.632H151.728V28.08H145.936V34H141.232V28.08H135.472V23.632H141.232V17.712Z" fill="white"/>
</svg>
